<svg id="SvgjsSvg1001" width="288" height="288" xmlns="http://www.w3.org/2000/svg" version="1.1" xmlns:xlink="http://www.w3.org/1999/xlink" xmlns:svgjs="http://svgjs.com/svgjs"><defs id="SvgjsDefs1002"></defs><g id="SvgjsG1008" transform="matrix(0.916700005531311,0,0,0.916700005531311,11.995200157165527,11.995240211486816)"><svg xmlns="http://www.w3.org/2000/svg" width="288" height="288" enable-background="new 0 0 512 512" viewBox="0 0 512 512"><path d="m502 322.254h-9.998v-30.001c0-4.405-.142-8.788-.393-13.151-.005-.102 0-.202-.007-.305-.005-.061-.017-.119-.022-.179-3.035-50.812-22.99-98.538-57.179-136.696l16.565-23.268c.608.056 1.219.094 1.834.094 1.119 0 2.248-.094 3.375-.284 5.276-.888 9.884-3.769 12.976-8.111l11.6-16.293c6.395-8.983 4.29-21.495-4.693-27.892l-65.172-46.396h-.001c-8.981-6.394-21.494-4.29-27.892 4.694l-11.598 16.292c-3.093 4.343-4.308 9.64-3.42 14.917.293 1.744.824 3.406 1.535 4.973l-16.427 23.076c-24.251-10.193-50.259-16.068-77.079-17.24l-.001-30.23c0-5.522-4.478-10-10-10-70.806 0-137.537 27.736-187.899 78.1-50.363 50.363-78.1 117.094-78.1 187.9 0 5.523 4.478 10 10 10h30v20.001h-30.004c-5.522 0-10 4.477-10 10v153.674c0 5.523 4.478 10 10 10h492c5.522 0 10-4.477 10-10v-153.675c0-5.523-4.478-10-10-10zm-299.484 0v-30.001c0-56.391 7.477-109.423 21.054-149.329 12.072-35.485 27.935-56.671 42.432-56.671 13.337 0 26.376 1.289 39.014 3.722-6.322 28.747 9.934 42.767 25.755 49.54 50.271 21.522 86.845 66.156 97.836 119.396 3.083 14.931 10.67 24.667 22.552 28.938 5.39 1.938 10.99 2.508 16.462 2.508 1.466 0 2.916-.05 4.356-.117.007.671.026 1.34.026 2.013v30.001zm268.309-52.006c-13.865.549-19.859-1.95-22.63-15.381-12.314-59.646-53.269-109.642-109.553-133.737-10.902-4.668-17.497-11.227-14.229-26.428 78.437 23.232 137.498 91.999 146.412 175.546zm-71.542-234.184.002.001-.002-.001 65.173 46.397-11.599 16.293-65.172-46.397zm-15.051 38.386 48.879 34.797-12.919 18.147c-14.854-13.925-31.24-25.637-48.764-34.958zm-260.837 55.623c-3.837-3.973-10.165-4.084-14.141-.249-21.64 20.894-38.665 45.381-50.603 72.783-11.043 25.346-17.214 52.095-18.417 79.646h-20.032c5.137-127.701 108.099-230.662 235.799-235.799l.001 20.019c-23.105 1.016-45.75 5.554-67.451 13.531-5.184 1.906-7.841 7.653-5.936 12.836 1.906 5.184 7.653 7.841 12.836 5.936 10.422-3.831 21.087-6.78 31.925-8.858-8.469 11.495-16.109 27.072-22.741 46.564-14.264 41.926-22.119 97.247-22.119 155.771v30.001h-122.514v-30.001c0-56.151 22.425-108.726 63.145-148.041 3.972-3.836 4.083-10.166.248-14.139zm368.605 212.181v20.001h-472v-20.001zm-159.729 133.674v-36.171c0-9.649 7.851-17.5 17.5-17.5s17.5 7.851 17.5 17.5v36.171zm55 0v-36.171c0-20.678-16.822-37.5-37.5-37.5s-37.5 16.822-37.5 37.5v36.171h-292.271v-93.672h472v93.672z" fill="#ffffff" class="color000 svgShape"></path><path d="m151.616 119.249c5.522 0 10-4.477 10-10s-4.478-10-10-10h-.008c-5.522 0-9.996 4.477-9.996 10s4.482 10 10.004 10z" fill="#ffffff" class="color000 svgShape"></path></svg></g></svg>