<?xml version="1.0" standalone="no"?>
<!DOCTYPE svg PUBLIC "-//W3C//DTD SVG 20010904//EN"
 "http://www.w3.org/TR/2001/REC-SVG-20010904/DTD/svg10.dtd">
<svg version="1.0" xmlns="http://www.w3.org/2000/svg"
 width="512.000000pt" height="512.000000pt" viewBox="0 0 512.000000 512.000000"
 preserveAspectRatio="xMidYMid meet">
<metadata>
Created by potrace 1.11, written by Peter Selinger 2001-2013
</metadata>
<g transform="translate(0.000000,512.000000) scale(0.100000,-0.100000)"
fill="#000000" stroke="none">
<path d="M3950 4954 c-64 -23 -89 -41 -125 -90 -22 -30 -45 -60 -50 -67 -74
-85 -108 -174 -93 -244 6 -27 6 -48 0 -56 -5 -7 -41 -58 -80 -114 l-72 -102
-61 25 c-100 41 -262 88 -374 109 -79 15 -230 35 -279 36 l-55 2 -3 173 -3
174 -28 27 c-26 27 -32 28 -120 27 -151 -1 -329 -19 -474 -49 -13 -3 -35 -7
-50 -11 -335 -67 -738 -255 -1030 -480 -127 -98 -144 -114 -289 -260 -275
-278 -484 -609 -611 -969 -29 -83 -62 -190 -69 -225 -3 -14 -11 -50 -19 -80
-7 -30 -18 -82 -24 -115 -10 -54 -14 -84 -27 -190 -2 -16 -6 -89 -10 -161 -5
-110 -3 -137 10 -163 26 -49 44 -53 222 -53 l164 0 0 -99 c0 -55 -3 -99 -7
-100 -5 0 -81 -1 -171 -2 l-164 -2 -29 -33 -29 -32 0 -795 c0 -550 3 -801 11
-818 6 -13 23 -31 38 -40 25 -15 241 -16 2510 -16 1698 0 2489 3 2505 10 12 6
30 23 39 39 16 26 17 99 17 824 l0 796 -29 32 c-26 29 -34 32 -95 34 -37 1
-69 3 -70 5 -2 2 -6 123 -9 269 -6 297 -21 413 -81 632 -83 300 -222 566 -433
829 -29 36 -53 69 -53 72 0 4 34 55 76 114 42 59 77 109 78 110 0 1 21 4 46 8
43 6 80 22 111 47 17 14 150 200 168 235 22 42 17 116 -10 168 -22 44 -52 68
-309 252 -428 306 -439 314 -496 318 -27 2 -56 2 -64 -1z"/>
</g>
</svg>
